<?xml version="1.0" standalone="no"?>
<!DOCTYPE svg PUBLIC "-//W3C//DTD SVG 20010904//EN"
 "http://www.w3.org/TR/2001/REC-SVG-20010904/DTD/svg10.dtd">
<svg version="1.0" xmlns="http://www.w3.org/2000/svg"
 width="1680.000000pt" height="1680.000000pt" viewBox="0 0 1680.000000 1680.000000"
 preserveAspectRatio="xMidYMid meet">

<g transform="translate(0.000000,1680.000000) scale(0.100000,-0.100000)"
fill="#000000" stroke="none">
<path d="M0 8400 l0 -8400 8398 2 8397 3 3 8398 2 8397 -8400 0 -8400 0 0
-8400z m9350 6090 c514 -187 1470 -535 2124 -773 l1189 -433 72 -124 c39 -69
242 -420 450 -780 208 -360 426 -738 485 -840 405 -703 1171 -2030 1212 -2099
l50 -85 -42 -235 c-22 -130 -72 -414 -111 -631 -38 -217 -92 -523 -120 -680
-28 -157 -155 -879 -283 -1605 l-233 -1319 -435 -366 c-239 -201 -572 -480
-739 -620 -944 -792 -1775 -1490 -2101 -1764 l-197 -166 -2272 0 -2271 0 -295
248 c-163 136 -400 335 -528 442 -128 107 -353 297 -501 421 -148 124 -512
429 -809 679 -297 249 -720 604 -941 789 l-401 336 -17 100 c-22 123 -506
2871 -656 3722 -61 341 -110 629 -110 638 0 10 70 139 157 289 86 149 306 530
488 846 183 316 358 620 390 675 186 323 1113 1928 1167 2020 l63 110 780 284
c429 156 1383 503 2120 772 737 268 1349 488 1360 489 11 0 441 -153 955 -340z"/>
<path d="M7650 14285 c-410 -150 -1321 -481 -2025 -738 -704 -256 -1287 -468
-1296 -472 -9 -3 -66 -92 -127 -198 -105 -183 -349 -606 -1265 -2192 -225
-390 -497 -861 -604 -1046 l-193 -336 19 -104 c11 -57 41 -223 66 -369 25
-146 82 -467 126 -715 44 -247 95 -538 114 -645 19 -107 72 -413 120 -680 47
-267 136 -773 198 -1125 l113 -640 254 -213 c140 -118 377 -315 525 -439 l270
-226 -512 514 -513 514 0 2270 0 2270 1603 1603 1602 1602 2275 0 2275 0 1603
-1603 1602 -1602 0 -2267 0 -2266 -510 -510 c-280 -280 -510 -512 -510 -515 0
-4 129 103 288 236 158 133 392 330 520 437 129 108 235 203 237 215 3 11 66
369 141 795 74 426 171 975 214 1220 238 1343 390 2213 390 2233 0 13 -131
251 -291 528 -464 802 -809 1400 -1359 2354 -282 490 -514 891 -515 892 -1 3
-1270 466 -1430 523 -44 15 -613 222 -1265 460 -652 238 -1232 449 -1290 469
l-105 37 -745 -271z"/>
<path d="M4707 11132 l-1527 -1527 0 -2155 0 -2156 725 -726 c399 -399 725
-724 725 -722 0 2 -107 137 -238 301 -131 164 -318 399 -417 523 -99 124 -287
360 -418 525 -132 165 -243 305 -248 311 -6 7 3 63 20 140 163 713 453 1983
581 2544 346 1520 391 1716 397 1734 3 12 66 48 187 106 99 48 359 173 576
278 217 104 649 312 960 462 311 150 671 323 800 385 129 62 370 178 535 257
165 80 465 224 667 321 l366 177 134 -64 c73 -35 198 -95 278 -133 480 -232
734 -354 1230 -593 305 -147 794 -382 1085 -523 292 -140 658 -316 815 -392
157 -76 345 -166 418 -201 72 -35 132 -65 132 -67 0 -6 128 -570 245 -1082 53
-231 166 -724 250 -1095 85 -371 233 -1021 330 -1444 96 -423 175 -777 175
-788 0 -11 -77 -117 -172 -236 -316 -398 -1120 -1407 -1141 -1432 -12 -14 306
301 706 700 l727 725 0 2165 0 2164 -1522 1523 -1523 1523 -2165 0 -2165 0
-1528 -1528z"/>
<path d="M8245 11546 c-82 -40 -454 -220 -825 -398 -371 -179 -803 -388 -960
-463 -284 -137 -332 -160 -785 -378 -132 -63 -334 -161 -450 -216 -115 -56
-282 -137 -370 -179 -88 -42 -196 -95 -240 -117 l-79 -40 -78 -340 c-80 -355
-396 -1739 -694 -3043 -96 -420 -174 -771 -174 -781 0 -9 55 -86 123 -171 68
-85 339 -425 602 -755 263 -330 575 -720 692 -868 117 -147 215 -267 217 -267
2 0 -59 109 -136 243 -77 133 -216 373 -308 532 -92 160 -336 583 -543 942
l-377 652 239 413 c131 227 433 751 671 1163 238 413 484 838 546 945 61 107
269 467 461 800 l350 605 2270 3 2271 2 105 -182 c58 -101 238 -412 400 -693
161 -280 421 -730 577 -1000 155 -269 375 -650 488 -845 113 -195 237 -411
277 -480 40 -69 150 -259 245 -423 97 -169 170 -306 168 -315 -3 -9 -267 -471
-588 -1027 -321 -555 -617 -1068 -658 -1140 -41 -71 -84 -146 -95 -165 -12
-21 -14 -29 -5 -20 13 13 385 478 1397 1748 204 257 233 296 228 320 -4 15
-79 344 -167 732 -89 388 -172 752 -185 810 -13 58 -107 472 -210 920 -102
448 -201 883 -220 965 -104 460 -166 720 -172 725 -5 4 -177 88 -383 187 -561
270 -1026 494 -2300 1108 -635 306 -1159 558 -1165 560 -5 2 -77 -29 -160 -69z"/>
<path d="M6083 9223 c-111 -192 -392 -679 -625 -1083 -457 -790 -1147 -1986
-1235 -2138 -29 -51 -53 -97 -53 -103 0 -6 95 -176 212 -377 116 -202 294
-511 396 -687 161 -278 411 -712 725 -1255 49 -85 118 -206 154 -267 36 -62
66 -113 68 -113 5 0 0 16 -83 270 -68 208 -194 594 -457 1405 -70 215 -187
575 -260 800 -211 647 -199 606 -183 620 7 7 292 215 633 462 548 397 1702
1236 2680 1946 181 132 335 240 342 241 6 1 270 -186 585 -415 315 -229 845
-614 1178 -856 333 -242 895 -650 1250 -908 355 -257 648 -471 652 -474 5 -4
-62 -223 -148 -486 -162 -501 -327 -1008 -544 -1675 -275 -846 -300 -923 -297
-926 2 -3 430 734 978 1686 269 468 562 975 572 991 10 17 -6 47 -290 539 -50
85 -251 434 -448 775 -197 341 -450 780 -563 975 -113 195 -280 486 -372 645
-298 516 -422 730 -432 743 -8 9 -445 12 -2123 12 l-2112 0 -200 -347z"/>
<path d="M7720 8136 c-371 -271 -1080 -786 -1575 -1145 -1164 -846 -1105 -802
-1105 -812 0 -5 33 -111 74 -236 102 -314 175 -539 333 -1023 695 -2141 673
-2073 678 -2079 3 -2 5 822 5 1832 l0 1837 2270 0 2270 0 2 -1836 3 -1835 87
269 c48 148 114 351 147 453 196 604 730 2246 786 2418 36 112 62 208 58 211
-4 4 -372 272 -818 596 -445 323 -1046 759 -1335 969 -1062 772 -1185 861
-1195 866 -5 3 -314 -215 -685 -485z"/>
<path d="M6395 6238 c-3 -7 -4 -867 -3 -1910 l3 -1898 607 1053 c1276 2210
1387 2402 1395 2404 7 3 220 -362 799 -1366 33 -59 307 -533 609 -1056 302
-522 558 -967 569 -987 24 -42 38 -49 32 -15 -3 12 -5 869 -5 1905 l-1 1882
-2000 0 c-1591 0 -2002 -3 -2005 -12z"/>
<path d="M8165 4972 c-1008 -1746 -1568 -2717 -1572 -2729 -4 -11 296 -13
1806 -13 996 0 1811 2 1811 4 0 3 -212 371 -1208 2096 -381 660 -418 725 -509
882 -46 81 -88 150 -91 152 -4 2 -110 -174 -237 -392z"/>
</g>
</svg>
