<?xml version="1.0" encoding="utf-8"?>
<!-- Generator: Adobe Illustrator 16.0.3, SVG Export Plug-In . SVG Version: 6.00 Build 0)  -->
<!DOCTYPE svg PUBLIC "-//W3C//DTD SVG 1.1//EN" "http://www.w3.org/Graphics/SVG/1.1/DTD/svg11.dtd">
<svg version="1.1" id="Layer_1" xmlns="http://www.w3.org/2000/svg" xmlns:xlink="http://www.w3.org/1999/xlink" x="0px" y="0px"
	 width="82.28px" height="78.645px" viewBox="0 0 82.28 78.645" enable-background="new 0 0 82.28 78.645" xml:space="preserve">
<path fill="#E6E8E6" d="M82.084,29.748c-0.47-1.448-1.722-2.503-3.229-2.723l-23.582-3.427L44.727,2.229
	C44.053,0.864,42.663,0,41.14,0s-2.913,0.864-3.587,2.229L27.007,23.599L3.425,27.025c-1.507,0.219-2.759,1.274-3.229,2.723
	c-0.471,1.448-0.078,3.038,1.012,4.1l17.064,16.633l-4.028,23.488c-0.257,1.5,0.359,3.017,1.591,3.912
	c1.231,0.894,2.865,1.014,4.212,0.304L41.14,67.096l21.092,11.089c0.585,0.309,1.224,0.46,1.861,0.46
	c0.83,0,1.655-0.258,2.352-0.764c1.232-0.896,1.849-2.412,1.591-3.912l-4.028-23.488l17.064-16.633
	C82.163,32.786,82.555,31.196,82.084,29.748z"/>
</svg>
