<?xml version="1.0" encoding="utf-8"?>
<!-- Generator: Adobe Illustrator 16.0.0, SVG Export Plug-In . SVG Version: 6.00 Build 0)  -->
<!DOCTYPE svg PUBLIC "-//W3C//DTD SVG 1.1//EN" "http://www.w3.org/Graphics/SVG/1.1/DTD/svg11.dtd">
<svg version="1.1" id="Layer_1" xmlns="http://www.w3.org/2000/svg" xmlns:xlink="http://www.w3.org/1999/xlink" x="0px" y="0px"
	 width="337.104px" height="337.606px" viewBox="0 0 337.104 337.606" enable-background="new 0 0 337.104 337.606"
	 xml:space="preserve">
<g opacity="0.4">
	<rect x="165.041" y="59.946" fill="#E6E8E6" width="7.022" height="21.069"/>
	<rect x="256.34" y="165.291" fill="#E6E8E6" width="21.068" height="7.022"/>
	<rect x="165.041" y="256.59" fill="#E6E8E6" width="7.022" height="21.069"/>
	<rect x="59.695" y="165.291" fill="#E6E8E6" width="21.069" height="7.022"/>
	<path fill="#E6E8E6" d="M236.747,100.61c-2.732-2.754-7.178-2.772-9.934-0.041c-0.014,0.014-0.025,0.027-0.041,0.041L168.553,158.9
		L131.4,121.679c-2.754-2.754-7.219-2.754-9.973,0c-2.754,2.753-2.754,7.219,0,9.972l37.223,37.151l-9.131,9.061
		c-2.754,2.73-2.771,7.179-0.041,9.932c0.014,0.014,0.027,0.027,0.041,0.041c2.732,2.754,7.179,2.773,9.932,0.041
		c0.014-0.014,0.027-0.027,0.041-0.041l9.061-9.129l9.059,9.129c2.73,2.754,7.178,2.773,9.932,0.041
		c0.014-0.014,0.027-0.027,0.041-0.041c2.754-2.73,2.773-7.178,0.041-9.932c-0.014-0.014-0.027-0.027-0.041-0.041l-9.129-9.061
		l58.291-58.219c2.754-2.732,2.771-7.178,0.041-9.933C236.772,100.637,236.76,100.623,236.747,100.61z"/>
	<path fill="#E6E8E6" d="M168.553,302.239c73.693-0.107,133.348-59.936,133.24-133.63c-0.02-14.257-2.326-28.417-6.826-41.944
		c-0.604-1.841-2.584-2.847-4.426-2.247c-1.824,0.663-2.813,2.637-2.246,4.495c21.904,66.292-14.078,137.788-80.369,159.692
		c-41.106,13.582-86.303,5.188-119.788-22.252c-1.451-1.226-3.623-1.043-4.85,0.41c-0.021,0.027-0.044,0.054-0.066,0.081
		c-1.244,1.437-1.089,3.61,0.349,4.854c0.023,0.021,0.048,0.041,0.073,0.062C107.551,291.469,137.568,302.245,168.553,302.239z"/>
	<path fill="#E6E8E6" d="M248.403,70.48c1.453,1.227,3.625,1.042,4.852-0.409c0.021-0.026,0.043-0.055,0.066-0.082
		c1.225-1.453,1.041-3.624-0.41-4.85c-0.027-0.023-0.055-0.045-0.082-0.067c-57.07-46.626-141.133-38.16-187.758,18.911
		c-28.876,35.344-37.685,82.993-23.354,126.326c0.455,1.445,1.785,2.436,3.301,2.457c0.371,0.067,0.752,0.067,1.124,0
		c1.842-0.602,2.847-2.582,2.247-4.424C26.252,142.128,61.982,70.506,128.197,48.369C169.405,34.593,214.797,42.942,248.403,70.48z"
		/>
	<path fill="#E6E8E6" d="M330.081,161.78c-3.879,0-7.023,3.144-7.023,7.022c-0.008,85.332-69.189,154.5-154.52,154.492
		c-46.934-0.005-91.323-21.344-120.64-57.994l22.685-15.803L7.023,219.79l5.971,69.738l23.176-16.154
		c57.617,73.114,163.596,85.676,236.711,28.057c40.623-32.014,64.299-80.906,64.223-132.629
		C337.104,164.924,333.959,161.78,330.081,161.78z"/>
	<path fill="#E6E8E6" d="M14.047,168.802c0.008-85.33,69.19-154.498,154.52-154.489c46.934,0.005,91.322,21.343,120.641,57.994
		l-22.334,15.802l63.207,29.707l-5.969-69.738L300.936,64.23C243.317-8.883,137.338-21.444,64.225,36.175
		C23.602,68.189-0.074,117.082,0,168.802c0,3.879,3.145,7.023,7.023,7.023S14.047,172.681,14.047,168.802z"/>
</g>
</svg>
